<svg xmlns="http://www.w3.org/2000/svg" viewBox="0 0 329.12 329.01"><defs><style>.cls-1{fill:#fff;}</style></defs><title>btn-history</title><g id="Layer_2" data-name="Layer 2"><g id="Layer_1-2" data-name="Layer 1"><path class="cls-1" d="M.51,151.83H25.36c-2.24,52.84,16.5,96.09,60,127.08,25.3,18,54.05,26.11,85.09,24.52,66.13-3.38,119.57-50.13,131.14-114.2A138.85,138.85,0,0,0,219.16,36.35C161.38,11.71,97.85,29.38,61,72.13L89,100l-.49.83H.33V13.34L41.89,55C78.7,16.37,122.56-2.75,175,.32c39,2.28,73.13,17.16,101.67,43.91,57.46,53.88,69,140.43,28.14,206.12-42.42,68.2-125,95.58-197.86,68.1C31.92,290.12-4.85,217.91.51,151.83Z"/><path class="cls-1" d="M227.64,151.59v25.32H152V50.75h25V151.59Z"/></g></g></svg>