<svg xmlns="http://www.w3.org/2000/svg" width="511.969" height="510.719" viewBox="0 0 511.969 510.719">
  <metadata><?xpacket begin="﻿" id="W5M0MpCehiHzreSzNTczkc9d"?>
<x:xmpmeta xmlns:x="adobe:ns:meta/" x:xmptk="Adobe XMP Core 5.6-c142 79.160924, 2017/07/13-01:06:39        ">
   <rdf:RDF xmlns:rdf="http://www.w3.org/1999/02/22-rdf-syntax-ns#">
      <rdf:Description rdf:about=""/>
   </rdf:RDF>
</x:xmpmeta>
                                                                                                    
                                                                                                    
                                                                                                    
                                                                                                    
                                                                                                    
                                                                                                    
                                                                                                    
                                                                                                    
                                                                                                    
                                                                                                    
                                                                                                    
                                                                                                    
                                                                                                    
                                                                                                    
                                                                                                    
                                                                                                    
                                                                                                    
                                                                                                    
                                                                                                    
                                                                                                    
                           
<?xpacket end="w"?></metadata>
<defs>
    <style>
      .cls-1 {
        fill: #fff;
        fill-rule: evenodd;
      }
    </style>
  </defs>
  <path id="Forma_1" data-name="Forma 1" class="cls-1" d="M434.136,184.289L316.773,66.891a10.669,10.669,0,0,0-15.086,15.091l117.361,117.4A10.67,10.67,0,0,0,434.136,184.289ZM316.773,66.891a10.674,10.674,0,0,0-15.086,0L152.317,216.307A10.67,10.67,0,0,0,167.4,231.4L316.773,81.982A10.683,10.683,0,0,0,316.773,66.891Zm178.69-50.844C474.423-5,437.742-5,416.7,16.047L45.626,387.066a10.568,10.568,0,0,0-2.348,3.586L0.6,497.378a10.62,10.62,0,0,0,2.348,11.5A10.749,10.749,0,0,0,10.5,512a10.552,10.552,0,0,0,3.948-.769l106.693-42.69a10.766,10.766,0,0,0,5.377-4.76c6.786-8.217,65.424-68.6,368.922-368.628A55.643,55.643,0,0,0,495.463,16.047ZM480.419,79.954c-283.44,280.24-352.021,349.419-368.6,369.333L29.643,482.158,62.27,400.6,431.788,31.117c13-12.978,35.444-13.127,48.737.149A34.278,34.278,0,0,1,480.419,79.954ZM135.4,440.43L71.381,376.4a10.669,10.669,0,0,0-15.087,15.091l64.016,64.035A10.669,10.669,0,0,0,135.4,440.43Z" transform="translate(0 -0.281)"/>
</svg>
