<svg xmlns="http://www.w3.org/2000/svg" width="447.5" height="511.5" viewBox="0 0 447.5 511.5">
  <metadata><?xpacket begin="﻿" id="W5M0MpCehiHzreSzNTczkc9d"?>
<x:xmpmeta xmlns:x="adobe:ns:meta/" x:xmptk="Adobe XMP Core 5.6-c142 79.160924, 2017/07/13-01:06:39        ">
   <rdf:RDF xmlns:rdf="http://www.w3.org/1999/02/22-rdf-syntax-ns#">
      <rdf:Description rdf:about=""/>
   </rdf:RDF>
</x:xmpmeta>
                                                                                                    
                                                                                                    
                                                                                                    
                                                                                                    
                                                                                                    
                                                                                                    
                                                                                                    
                                                                                                    
                                                                                                    
                                                                                                    
                                                                                                    
                                                                                                    
                                                                                                    
                                                                                                    
                                                                                                    
                                                                                                    
                                                                                                    
                                                                                                    
                                                                                                    
                                                                                                    
                           
<?xpacket end="w"?></metadata>
<defs>
    <style>
      .cls-1 {
        fill: #fff;
        fill-rule: evenodd;
      }
    </style>
  </defs>
  <path id="Forma_1" data-name="Forma 1" class="cls-1" d="M389.506,295.24c-6.824-6.722-21.957-10.283-44.986-10.586a372.711,372.711,0,0,0-54.085,3.964c-8.837-5.1-17.945-10.647-25.094-17.329-19.232-17.958-35.284-42.886-45.288-70.3,0.652-2.56,1.207-4.81,1.724-7.106,0,0,10.832-61.53,7.965-82.333a23.965,23.965,0,0,0-1.4-5.9l-0.942-2.417c-2.946-6.8-8.723-14-17.781-13.6l-5.312-.169-0.146,0c-10.1,0-18.332,5.166-20.493,12.887-6.569,24.217.209,60.446,12.491,107.369l-3.144,7.643c-8.794,21.438-19.815,43.03-29.539,62.079l-1.264,2.477c-10.23,20.021-19.512,37.015-27.927,51.411l-8.688,4.594c-0.632.334-15.522,8.209-19.014,10.322-29.628,17.69-49.261,37.772-52.518,53.708-1.036,5.085-.265,11.593,5.007,14.607l8.4,4.228A25.317,25.317,0,0,0,78.9,423.538c21.1,0,45.6-26.286,79.348-85.183a790.371,790.371,0,0,1,122.207-29.044c29.629,16.683,66.071,28.271,89.071,28.271a41.711,41.711,0,0,0,10.466-1.146,17.8,17.8,0,0,0,10.4-7.1c4.463-6.716,5.367-15.966,4.156-25.438C394.18,301.089,391.935,297.613,389.506,295.24ZM74.323,407.523c3.848-10.52,19.08-31.321,41.6-49.777,1.416-1.148,4.9-4.416,8.1-7.451C100.471,387.857,84.7,402.828,74.323,407.523Zm133.394-307.18c6.783,0,10.642,17.1,10.962,33.127s-3.429,27.28-8.079,35.6c-3.851-12.324-5.713-31.75-5.713-44.452C204.887,124.622,204.6,100.343,207.717,100.343Zm-39.791,218.9c4.725-8.458,9.641-17.378,14.665-26.839a511.012,511.012,0,0,0,25.739-56.173c11.455,20.842,25.722,38.56,42.493,52.756q3.138,2.657,6.637,5.325C223.355,301.065,193.878,309.272,167.926,319.247Zm215.026-1.921c-2.077,1.3-8.027,2.05-11.854,2.05-12.353,0-27.636-5.647-49.062-14.833,8.233-.609,15.781-0.919,22.55-0.919,12.391,0,16.06-.054,28.175,3.036S385.029,316.027,382.952,317.326Zm37.264-217.111L348.784,28.784C333.228,13.228,302.5.5,280.5,0.5H40.5a40.118,40.118,0,0,0-40,40v432a40.118,40.118,0,0,0,40,40h368a40.118,40.118,0,0,0,40-40v-304C448.5,146.5,435.773,115.771,420.216,100.215Zm-22.627,22.628a42.245,42.245,0,0,1,4.64,5.657H320.5V46.772a42.26,42.26,0,0,1,5.657,4.64ZM416.5,472.5a8.108,8.108,0,0,1-8,8H40.5a8.108,8.108,0,0,1-8-8V40.5a8.108,8.108,0,0,1,8-8h240a43.543,43.543,0,0,1,8,.852V160.5H415.648a43.525,43.525,0,0,1,.852,8v304Z" transform="translate(-0.5 -0.5)"/>
</svg>
