<svg xmlns="http://www.w3.org/2000/svg" width="799" height="783" viewBox="0 0 799 783">
  <metadata><?xpacket begin="﻿" id="W5M0MpCehiHzreSzNTczkc9d"?>
<x:xmpmeta xmlns:x="adobe:ns:meta/" x:xmptk="Adobe XMP Core 5.6-c142 79.160924, 2017/07/13-01:06:39        ">
   <rdf:RDF xmlns:rdf="http://www.w3.org/1999/02/22-rdf-syntax-ns#">
      <rdf:Description rdf:about=""/>
   </rdf:RDF>
</x:xmpmeta>
                                                                                                    
                                                                                                    
                                                                                                    
                                                                                                    
                                                                                                    
                                                                                                    
                                                                                                    
                                                                                                    
                                                                                                    
                                                                                                    
                                                                                                    
                                                                                                    
                                                                                                    
                                                                                                    
                                                                                                    
                                                                                                    
                                                                                                    
                                                                                                    
                                                                                                    
                                                                                                    
                           
<?xpacket end="w"?></metadata>
<defs>
    <style>
      .cls-1 {
        fill: #fff;
        fill-rule: evenodd;
      }
    </style>
  </defs>
  <path class="cls-1" d="M1,393.08a27.563,27.563,0,0,0,27.57,27.559H553.675L451.25,522.866A27.48,27.48,0,0,0,490.04,561.8L639.269,412.628a27.555,27.555,0,0,0,0-38.936L490.04,224.519a27.537,27.537,0,1,0-38.95,38.936L553.354,365.681H28.57A27.427,27.427,0,0,0,1,393.08ZM636.384,785C727.268,785,801,711.135,801,620.285V165.715C801,74.865,727.107,1,636.384,1H181.645C90.762,1,17.029,74.865,17.029,165.715v93.414a27.49,27.49,0,0,0,54.979,0V165.715c0-60.406,49.208-109.757,109.637-109.757H636.384A109.808,109.808,0,0,1,746.021,165.715v454.57c0,60.406-49.209,109.757-109.637,109.757H181.645A109.808,109.808,0,0,1,72.008,620.285V527.993a27.49,27.49,0,1,0-54.979,0v92.292C17.029,711.135,90.922,785,181.645,785H636.384Z" transform="translate(-1 -1)"/>
</svg>
