<svg xmlns="http://www.w3.org/2000/svg" width="447.5" height="511.5" viewBox="0 0 447.5 511.5">
  <metadata><?xpacket begin="﻿" id="W5M0MpCehiHzreSzNTczkc9d"?>
<x:xmpmeta xmlns:x="adobe:ns:meta/" x:xmptk="Adobe XMP Core 5.6-c142 79.160924, 2017/07/13-01:06:39        ">
   <rdf:RDF xmlns:rdf="http://www.w3.org/1999/02/22-rdf-syntax-ns#">
      <rdf:Description rdf:about=""/>
   </rdf:RDF>
</x:xmpmeta>
                                                                                                    
                                                                                                    
                                                                                                    
                                                                                                    
                                                                                                    
                                                                                                    
                                                                                                    
                                                                                                    
                                                                                                    
                                                                                                    
                                                                                                    
                                                                                                    
                                                                                                    
                                                                                                    
                                                                                                    
                                                                                                    
                                                                                                    
                                                                                                    
                                                                                                    
                                                                                                    
                           
<?xpacket end="w"?></metadata>
<defs>
    <style>
      .cls-1 {
        fill: #fff;
        fill-rule: evenodd;
      }
    </style>
  </defs>
  <path id="Forma_1" data-name="Forma 1" class="cls-1" d="M340.014,192.5H272.368L224.5,263.016,176.631,192.5H108.987l81.081,121.232L98.581,448.5H229.7V402.712H199.423l25.078-37.5L280.2,448.5H350.42L258.932,313.732Zm80.2-92.285L348.784,28.784C333.228,13.228,302.5.5,280.5,0.5H40.5a40.118,40.118,0,0,0-40,40v432a40.118,40.118,0,0,0,40,40h368a40.118,40.118,0,0,0,40-40v-304C448.5,146.5,435.773,115.771,420.216,100.215Zm-22.627,22.628a42.245,42.245,0,0,1,4.64,5.657H320.5V46.772a42.26,42.26,0,0,1,5.657,4.64ZM416.5,472.5a8.108,8.108,0,0,1-8,8H40.5a8.108,8.108,0,0,1-8-8V40.5a8.108,8.108,0,0,1,8-8h240a43.543,43.543,0,0,1,8,.852V160.5H415.648a43.525,43.525,0,0,1,.852,8v304Z" transform="translate(-0.5 -0.5)"/>
</svg>
