<?xml version="1.0" encoding="utf-8"?>
<!-- Generator: Adobe Illustrator 22.0.1, SVG Export Plug-In . SVG Version: 6.00 Build 0)  -->
<svg version="1.1" id="Layer_1" xmlns="http://www.w3.org/2000/svg" xmlns:xlink="http://www.w3.org/1999/xlink" x="0px" y="0px"
	 viewBox="0 0 512 512" style="enable-background:new 0 0 512 512;" xml:space="preserve">
<style type="text/css">
	.st0{fill:#FFFFFF;}
</style>
<path class="st0" d="M370.4,511.9h-24.3c-1.1-0.4-2.2-0.7-3.4-0.9c-45.4-5.1-81.3-26.4-108.6-62.8c-2-3.1-5.5-4.9-9.1-4.6
	c-55.3,0.1-110.6,0.1-165.9,0c-5.2,0.1-10.4-0.3-15.6-1.2C19.9,438-0.1,416.2,0,386.6C0.4,277.1,0.1,167.5,0.2,58
	C0,53.9,0.3,49.9,0.8,45.8c4.9-28,26.8-45.8,56.5-45.8C156.4,0,255.5,0,354.6,0c3.2-0.1,6.2,1.2,8.3,3.5
	c25.5,25.7,51.1,51.3,76.9,76.9c2.7,2.5,4.2,6,4,9.7c-0.1,45.2,0,90.3-0.2,135.5c-0.3,3.3,1.4,6.5,4.2,8.3
	c31.6,23.1,51.8,53.7,60.5,91.9c1.5,6.7,2.4,13.5,3.6,20.3v24.3c-0.6,3.8-1.2,7.6-1.9,11.4c-11.9,63.4-48.8,104.8-110.1,124.2
	C390.4,508.9,380.2,510,370.4,511.9z M341.2,33.2v6.9c0,20.9,0.1,41.8-0.1,62.7c0.1,5.8-0.3,11.5-1.2,17.2
	c-4.8,26.4-25.7,50.8-57.2,50.7c-52.1-0.1-104.1,0-156.2,0c-10.5,0-20.4-2.4-29.2-8.3c-20.2-13.6-28.7-33.3-29.1-56.9
	c-0.3-21.9,0-43.8,0-65.7c0-1.8,0-3.5,0-5.6c-4.5,0-8.2,0-11.9,0c-14,0-22.1,7.9-22.1,21.8c0,110.6,0,221.1,0,331.6
	c0,13.8,8.2,21.9,22.1,21.9s27.6,0,41.4,0c1.5,0,2.9-0.2,4.7-0.3v-4.9c0-27.1-0.2-54.3,0.1-81.4c0.3-26.9,21.8-48.8,48.7-49.6
	c24.9-0.6,49.9-0.3,74.8-0.2c3,0.3,5.9-1.2,7.5-3.7c9.2-13.4,20.6-25,33.8-34.5c35.5-25.4,74.6-35.4,117.9-27.3
	c8.1,1.5,15.9,3.8,24.1,5.8c0.2-0.6,0.3-1.3,0.3-1.9c0-36.7,0-73.5-0.1-110.2c-0.1-1.8-0.8-3.5-2.1-4.8c-20-20.1-40-40.1-60.1-60
	C346.1,35.2,344,34.7,341.2,33.2L341.2,33.2z M358.5,477.6c65.7,0.2,119-52.9,119.2-118.5c0-0.3,0-0.6,0-0.9
	c0-67.1-53.5-120-122-119.2c-65,0.7-117.5,54.4-116.9,121.4C239.4,424.7,293.1,477.8,358.5,477.6L358.5,477.6z M204.7,34.6H102.5
	c0,25.5-0.6,50.6,0.2,75.6c0.6,17.4,11.4,26.3,28.5,26.3c50,0,100.1-0.1,150.1,0c10.5,0,18.1-4.6,22-13.9c2.4-6.1,3.7-12.5,3.7-19
	c0.4-21.4,0.2-42.8,0.2-64.2c0-1.6-0.2-3.2-0.3-4.9h-34V102h-68.3V34.6z M214.1,409.3c-12.3-34.2-12.3-67.8,0-102.1h-5.6
	c-17.7,0-35.4,0-53,0c-12.4,0-18.9,6.6-18.9,19.1c0,25.9,0,51.9,0,77.8c0,1.6,0.1,3.3,0.2,5.2L214.1,409.3z"/>
<path class="st0" d="M346,412.3l-61.1-61.7l23-23.8c12.9,12.8,25.6,25.6,38.1,38.1l62.4-62.4l23.9,23.9L346,412.3z"/>
</svg>
