<?xml version="1.0" encoding="utf-8"?>
<!-- Generator: Adobe Illustrator 22.0.1, SVG Export Plug-In . SVG Version: 6.00 Build 0)  -->
<svg version="1.1" id="Layer_1" xmlns="http://www.w3.org/2000/svg" xmlns:xlink="http://www.w3.org/1999/xlink" x="0px" y="0px"
	 viewBox="0 0 512 512" style="enable-background:new 0 0 512 512;" xml:space="preserve">
<style type="text/css">
	.st0{fill:#FFFFFF;}
</style>
<path class="st0" d="M511.9,456.4c-3.9,21.8-20.7,34.3-35.9,47.1c-16.5,13.8-40.5,10.9-56.4-5c-18.1-18.1-35.9-36.5-53.9-54.7
	c-33.5-34.1-67-68.3-100.5-102.5c-2.5-2.6-4.3-5.8-5.2-9.3c-7.4-30.2-14.6-60.4-21.8-90.6c-0.2-1.2-0.3-2.4-0.4-3.6
	c4.1,0.9,7.8,1.6,11.5,2.5c28.3,6.7,56.5,13.4,84.8,20.2c2.1,0.6,4,1.7,5.5,3.2c46.4,45.6,92.8,91.2,139.2,136.8
	c3.7,3.7,7.4,7.4,11.3,10.9c10.4,9.3,19.4,19.6,22,34L511.9,456.4z M283.1,283.2c2.8,11.7,5.4,22.5,8.1,33.4
	c0.6,2.2,1.7,4.3,3.3,5.9c8.6,9,17.4,17.9,26.2,26.7c40.6,41.4,81.3,82.7,121.9,124c6.4,6.4,10.2,6.4,16.6,0
	c4.8-4.8,9.5-9.5,14.3-14.3c5.9-6,5.9-10-0.1-15.9c-50.3-49.5-100.7-99-151-148.5c-0.9-1.2-2.2-2.1-3.5-2.7
	C307.2,288.9,295.5,286.2,283.1,283.2z"/>
<path class="st0" d="M68.1,34.7c-6.6,0-12.7-0.6-18.6,0.2c-7.7,1-14.1,8.5-15.1,16.3c-0.2,2.2-0.4,4.4-0.3,6.6
	c0,109.4,0,218.8,0,328.2c0,16.2,7.6,23.7,23.8,23.8c13,0,25.9,0,38.9,0c1.6,0,3.3-0.1,5.1-0.2v-5.7c0.3-26.3,0.2-52.6,0.4-78.9
	c0.1-25.9,17.5-46.6,43-50.9c5.9-1,12.1-0.7,18.2-0.7c14.3-0.1,28.7,0,43,0c2.3,0,4.2-0.1,4.9,2.9c2.2,10.1,4.7,20.2,7.2,31
	c-2.1,0.1-3.8,0.3-5.6,0.3c-19,0-38.1,0-57.1,0c-12.8,0-19.3,6.5-19.3,19.2c0,26,0,51.9-0.9,77.9v5.8h7c45.5-0.5,91-0.5,136.5-0.6
	c3.3-0.2,6.6,1.2,8.8,3.7c8.3,8.8,17,17.4,25.5,26c1.1,1.1,2.2,2.4,3.8,4.2c-2.5,0.1-4.2,0.3-5.8,0.3c-84.6,0-169.2,0-253.8,0
	c-28,0-49.1-15.4-55.8-40.6c-1.3-5.1-1.9-10.3-1.8-15.6C0,277.3,0,166.9,0.1,56.5c0-29.3,17.7-50.6,45.6-55.7
	c4-0.6,8.1-0.8,12.1-0.7C156.6,0,255.3,0,354.1,0c3.3-0.2,6.6,1.1,8.8,3.6c25.8,26,51.7,51.8,77.4,77.8c2,2.1,3.1,4.9,3.2,7.8
	c0.2,74.2,0.2,148.3,0.1,222.5c0,1.6-0.1,3.2-0.3,6c-7-6.9-12.7-13.7-19.5-18.9c-11.6-8.9-14.9-19.6-14.6-34.2
	c0.9-53.6,0.3-107.2,0.4-160.8c0.2-3.3-1.2-6.6-3.6-8.8c-19.4-19.2-38.6-38.6-58-57.8c-1.5-1.5-3.8-2.3-6.9-4c0,3.5,0,5.4,0,7.2
	c0,23.6,0.4,47.2-0.3,70.8c-0.9,28.1-20.2,53.5-46.3,58.5c-4.8,0.8-9.7,1.2-14.6,1.2c-50.4,0.1-100.8-0.4-151.2,0.2
	c-36,0.4-57.3-28.1-59.6-54.4c-1.7-19.4-0.9-39.1-1.1-58.6C68,50.2,68.1,42.5,68.1,34.7z M204.5,102.7V34H102.9
	c-0.3,1.2-0.5,1.5-0.5,1.8c0,24.6-0.5,49.2,0,73.8c0.4,17.4,11.3,27.1,28.4,27.1c50.2,0,100.4,0,150.7,0c10.1,0,17.5-4.4,21.3-13.3
	c2.6-6.3,3.9-13.1,4-20c0.5-21.2,0.2-42.5,0-63.7v-4.4h-33.7v67.4H204.5z"/>
</svg>
