<?xml version="1.0" encoding="utf-8"?>
<!-- Generator: Adobe Illustrator 22.0.1, SVG Export Plug-In . SVG Version: 6.00 Build 0)  -->
<svg version="1.1" id="Layer_1" xmlns="http://www.w3.org/2000/svg" xmlns:xlink="http://www.w3.org/1999/xlink" x="0px" y="0px"
	 viewBox="0 0 512 512" style="enable-background:new 0 0 512 512;" xml:space="preserve">
<style type="text/css">
	.st0{fill:#FFFFFF;}
</style>
<path class="st0" d="M240.3,481c-59.2,0-118.4,0-177.6,0c-19.1,0.1-35.5-6-48.1-20.6c-9-10-14.1-22.9-14.4-36.3
	c-0.1-9.9-0.1-19.7-0.1-29.6C0.1,284,0,173.5,0,62.9C0,39.5,8.8,21.2,28.6,8.5C38.3,2.4,49,0,60.4,0c101.3,0,202.7,0,304.1,0.1
	c2.5,0.1,4.8,1.1,6.6,2.8c35.7,35.5,71.4,71.2,106.9,106.9c1.7,1.8,2.7,4.2,2.8,6.6c0.1,101.2,0.1,202.4,0,303.6
	c0,30.6-18.9,53.6-47.9,59.6c-5.4,1-10.9,1.4-16.3,1.2C357.9,481,299.1,481,240.3,481z M111,443.9v-6.6c0-34.7-0.1-69.4,0-104.1
	c0-20.3,15.4-36.7,35.6-36.9c43.7-0.4,87.3-0.3,131-0.3c19.4,0,38.7-0.2,58.1,0.3c18.1,0.5,33.7,16.4,33.9,34.5
	c0.4,35.4,0.2,70.9,0.2,106.3v6.9c17.2,0,33.6,0,50,0c15.3,0,24.2-8.8,24.2-24.2c0-95.9,0-191.8-0.1-287.7c-0.1-2.6-1.2-5.1-3-7
	c-22.3-22.6-44.8-45.1-67.3-67.5c-0.9-0.9-2.1-1.7-3.8-2.9v6.8c0,27.8,0,55.5,0,83.3c0.1,3.6-0.2,7.3-0.8,10.9
	c-4.1,18.5-19,29.4-40,29.4c-71.2,0-142.5,0-213.8,0c-4.4,0.1-8.7-0.3-12.9-1.3c-17.4-4.3-28.4-18.9-28.4-37.6
	c-0.1-34.2,0-68.3,0-102.5v-6.4c-6.5,0-12.2-0.4-17.8,0.2c-3.6,0.5-7,1.8-10,3.7c-7.5,4.9-9,12.6-9,21.1
	c0.1,118.7,0.1,237.5,0,356.2c0,1.5,0,2.9,0.1,4.4c0.7,11.8,8.6,20.5,20.5,20.9C75.1,444.3,92.6,443.9,111,443.9z M148.3,443.7
	h184.3V333.4H148.3V443.7z M111.4,37.3v110.4h221.1V37.3H296v73.2h-74.4V37.3H111.4z"/>
</svg>
