<svg xmlns="http://www.w3.org/2000/svg" width="799" height="800" viewBox="0 0 799 800">
  <metadata><?xpacket begin="﻿" id="W5M0MpCehiHzreSzNTczkc9d"?>
<x:xmpmeta xmlns:x="adobe:ns:meta/" x:xmptk="Adobe XMP Core 5.6-c142 79.160924, 2017/07/13-01:06:39        ">
   <rdf:RDF xmlns:rdf="http://www.w3.org/1999/02/22-rdf-syntax-ns#">
      <rdf:Description rdf:about=""/>
   </rdf:RDF>
</x:xmpmeta>
                                                                                                    
                                                                                                    
                                                                                                    
                                                                                                    
                                                                                                    
                                                                                                    
                                                                                                    
                                                                                                    
                                                                                                    
                                                                                                    
                                                                                                    
                                                                                                    
                                                                                                    
                                                                                                    
                                                                                                    
                                                                                                    
                                                                                                    
                                                                                                    
                                                                                                    
                                                                                                    
                           
<?xpacket end="w"?></metadata>
<defs>
    <style>
      .cls-1 {
        fill: #fff;
        fill-rule: evenodd;
      }
    </style>
  </defs>
  <path class="cls-1" d="M759.739,316.023L703.61,306.5a317.028,317.028,0,0,0-22.552-54.481l33.076-46.292a49.285,49.285,0,0,0-5.345-63.673l-49.781-49.8a49.026,49.026,0,0,0-34.914-14.539A48.521,48.521,0,0,0,595.529,86.9l-46.44,33.09a313.527,313.527,0,0,0-56.462-23.23l-9.355-55.484A49.355,49.355,0,0,0,434.493,0H364.166a49.354,49.354,0,0,0-48.779,41.279L305.7,98.1a309.061,309.061,0,0,0-54.291,22.895L205.468,87.9a49.326,49.326,0,0,0-63.646,5.348l-49.948,49.8a49.487,49.487,0,0,0-5.345,63.673l33.41,46.96a309.751,309.751,0,0,0-22.218,54.648l-55.46,9.359A49.362,49.362,0,0,0,1,366.493v70.356a49.363,49.363,0,0,0,41.261,48.8l56.8,9.692a309.315,309.315,0,0,0,22.885,54.314L89.035,595.446a49.285,49.285,0,0,0,5.345,63.672l49.781,49.8a49.024,49.024,0,0,0,34.913,14.54,48.522,48.522,0,0,0,28.566-9.192l46.941-33.424a315.866,315.866,0,0,0,52.788,21.726l9.354,56.152A49.355,49.355,0,0,0,365.5,800H436a49.354,49.354,0,0,0,48.778-41.279l9.522-56.152a316.788,316.788,0,0,0,54.458-22.561L595.028,713.1a49.023,49.023,0,0,0,28.732,9.192h0a49.025,49.025,0,0,0,34.914-14.539l49.781-49.8a49.486,49.486,0,0,0,5.346-63.672l-33.077-46.459a314.98,314.98,0,0,0,22.553-54.481l56.128-9.359a49.362,49.362,0,0,0,41.261-48.8V364.821A48.767,48.767,0,0,0,759.739,316.023ZM755.9,435.179a4.327,4.327,0,0,1-3.676,4.344l-70.16,11.7a22.43,22.43,0,0,0-18.042,16.545,267.6,267.6,0,0,1-29.066,70.023,22.6,22.6,0,0,0,1,24.566l41.26,58.158a4.551,4.551,0,0,1-.5,5.681L626.935,676a4.243,4.243,0,0,1-3.175,1.337,4.1,4.1,0,0,1-2.5-.836L563.288,635.22a22.564,22.564,0,0,0-24.556-1A267.349,267.349,0,0,1,468.738,663.3,22.176,22.176,0,0,0,452.2,681.345l-11.86,70.19A4.328,4.328,0,0,1,436,755.212H365.669a4.328,4.328,0,0,1-4.344-3.677l-11.693-70.19A22.435,22.435,0,0,0,333.1,663.3,277.574,277.574,0,0,1,264.6,635.22a23.12,23.12,0,0,0-11.36-3.008,21.992,21.992,0,0,0-13.029,4.178L181.747,678a4.962,4.962,0,0,1-2.505.836,4.473,4.473,0,0,1-3.174-1.337l-49.781-49.8a4.53,4.53,0,0,1-.5-5.681l41.094-57.656a22.891,22.891,0,0,0,1-24.735,265.059,265.059,0,0,1-29.4-69.854,22.877,22.877,0,0,0-18.041-16.545L49.778,441.194a4.327,4.327,0,0,1-3.675-4.345V366.493a4.328,4.328,0,0,1,3.675-4.346l69.66-11.7a22.591,22.591,0,0,0,18.208-16.712,267.333,267.333,0,0,1,28.565-70.19,22.317,22.317,0,0,0-1.169-24.4l-41.595-58.492a4.553,4.553,0,0,1,.5-5.682l49.781-49.8a4.243,4.243,0,0,1,3.174-1.336,4.107,4.107,0,0,1,2.506.835l57.632,41.112a22.862,22.862,0,0,0,24.723,1,264.84,264.84,0,0,1,69.826-29.413,22.883,22.883,0,0,0,16.538-18.049l12.029-70.691a4.326,4.326,0,0,1,4.343-3.676h70.327a4.328,4.328,0,0,1,4.344,3.676l11.694,69.688a22.589,22.589,0,0,0,16.7,18.216,271.089,271.089,0,0,1,71.664,29.414,22.58,22.58,0,0,0,24.556-1L621.422,123.5a4.972,4.972,0,0,1,2.5-.835A4.477,4.477,0,0,1,627.1,124l49.78,49.8a4.534,4.534,0,0,1,.5,5.682l-41.261,57.99a22.589,22.589,0,0,0-1,24.567,267.589,267.589,0,0,1,29.066,70.023,22.178,22.178,0,0,0,18.042,16.545l70.16,11.865a4.329,4.329,0,0,1,3.676,4.345v70.358H755.9Zm-354.981-207.9c-95.218,0-172.562,77.376-172.562,172.634S305.7,572.55,400.916,572.55s172.562-77.376,172.562-172.634S496.134,227.282,400.916,227.282Zm0,300.146A127.512,127.512,0,1,1,528.375,399.916,127.57,127.57,0,0,1,400.916,527.428Z" transform="translate(-1)"/>
</svg>
