<svg xmlns="http://www.w3.org/2000/svg" width="799" height="800" viewBox="0 0 799 800">
  <metadata><?xpacket begin="﻿" id="W5M0MpCehiHzreSzNTczkc9d"?>
<x:xmpmeta xmlns:x="adobe:ns:meta/" x:xmptk="Adobe XMP Core 5.6-c142 79.160924, 2017/07/13-01:06:39        ">
   <rdf:RDF xmlns:rdf="http://www.w3.org/1999/02/22-rdf-syntax-ns#">
      <rdf:Description rdf:about=""/>
   </rdf:RDF>
</x:xmpmeta>
                                                                                                    
                                                                                                    
                                                                                                    
                                                                                                    
                                                                                                    
                                                                                                    
                                                                                                    
                                                                                                    
                                                                                                    
                                                                                                    
                                                                                                    
                                                                                                    
                                                                                                    
                                                                                                    
                                                                                                    
                                                                                                    
                                                                                                    
                                                                                                    
                                                                                                    
                                                                                                    
                           
<?xpacket end="w"?></metadata>
<defs>
    <style>
      .cls-1 {
        fill: #fff;
        fill-rule: evenodd;
      }
    </style>
  </defs>
  <path class="cls-1" d="M557.671,55.977H705.365L367.707,393.8A27.985,27.985,0,1,0,407.2,433.456L745.022,95.634V243.329a27.989,27.989,0,1,0,55.978,0V28.07A28.069,28.069,0,0,0,772.93,0H557.671A27.989,27.989,0,1,0,557.671,55.977ZM168.932,800H632.905c92.7,0,167.932-75.4,167.932-167.932V413.545a27.989,27.989,0,0,0-55.978,0v218.36A112.134,112.134,0,0,1,632.905,743.859H168.932A112.135,112.135,0,0,1,56.977,631.905V168.1A112.135,112.135,0,0,1,168.932,56.141H385.5A28.071,28.071,0,0,0,385.5,0H168.932C76.234,0,1,75.4,1,167.932V631.905C1,724.6,76.4,800,168.932,800Z" transform="translate(-1)"/>
</svg>
