<svg xmlns="http://www.w3.org/2000/svg" width="343.844" height="326" viewBox="0 0 343.844 326">
  <metadata><?xpacket begin="﻿" id="W5M0MpCehiHzreSzNTczkc9d"?>
<x:xmpmeta xmlns:x="adobe:ns:meta/" x:xmptk="Adobe XMP Core 5.6-c142 79.160924, 2017/07/13-01:06:39        ">
   <rdf:RDF xmlns:rdf="http://www.w3.org/1999/02/22-rdf-syntax-ns#">
      <rdf:Description rdf:about=""/>
   </rdf:RDF>
</x:xmpmeta>
                                                                                                    
                                                                                                    
                                                                                                    
                                                                                                    
                                                                                                    
                                                                                                    
                                                                                                    
                                                                                                    
                                                                                                    
                                                                                                    
                                                                                                    
                                                                                                    
                                                                                                    
                                                                                                    
                                                                                                    
                                                                                                    
                                                                                                    
                                                                                                    
                                                                                                    
                                                                                                    
                           
<?xpacket end="w"?></metadata>
<defs>
    <style>
      .cls-1 {
        fill: #fff;
        fill-rule: evenodd;
      }
    </style>
  </defs>
  <path id="Forma_1" data-name="Forma 1" class="cls-1" d="M333.946,28.3A12.5,12.5,0,0,0,319.1,37.9l-9.087,42.383A162.509,162.509,0,0,0,169.778,0C80.148,0,7.229,72.882,7.229,162.47a12.5,12.5,0,0,0,25.008,0C32.237,86.666,93.937,25,169.778,25a137.522,137.522,0,0,1,118.961,68.43L247.054,84.5a12.5,12.5,0,1,0-5.24,24.442l71.558,15.327a12.5,12.5,0,0,0,14.846-9.6l15.336-71.522A12.5,12.5,0,0,0,333.946,28.3ZM321.364,146.089a12.5,12.5,0,0,0-12.084,12.9A137.5,137.5,0,0,1,176.353,300.929c-1.531.05-3.053,0.075-4.577,0.075A137.537,137.537,0,0,1,54.8,235.837l43.46,11.648a12.5,12.5,0,1,0,6.477-24.144L34.056,204.4a12.506,12.506,0,0,0-15.316,8.834L-0.211,283.883a12.5,12.5,0,0,0,24.154,6.474L34.6,250.647A162.5,162.5,0,0,0,171.769,326c1.8,0,3.6-.029,5.41-0.089A162.5,162.5,0,0,0,334.273,158.165,12.49,12.49,0,0,0,321.364,146.089Z"/>
</svg>
