<svg xmlns="http://www.w3.org/2000/svg" viewBox="0 0 932 922.813">
  <metadata><?xpacket begin="﻿" id="W5M0MpCehiHzreSzNTczkc9d"?>
<x:xmpmeta xmlns:x="adobe:ns:meta/" x:xmptk="Adobe XMP Core 5.6-c142 79.160924, 2017/07/13-01:06:39        ">
   <rdf:RDF xmlns:rdf="http://www.w3.org/1999/02/22-rdf-syntax-ns#">
      <rdf:Description rdf:about=""/>
   </rdf:RDF>
</x:xmpmeta>
                                                                                                    
                                                                                                    
                                                                                                    
                                                                                                    
                                                                                                    
                                                                                                    
                                                                                                    
                                                                                                    
                                                                                                    
                                                                                                    
                                                                                                    
                                                                                                    
                                                                                                    
                                                                                                    
                                                                                                    
                                                                                                    
                                                                                                    
                                                                                                    
                                                                                                    
                                                                                                    
                           
<?xpacket end="w"?></metadata>
<defs>
    <style>
      .cls-1 {
        fill: #fff;
        fill-opacity: 0.3;
        fill-rule: evenodd;
      }
    </style>
  </defs>
  <path id="Forma_1" data-name="Forma 1" class="cls-1" d="M61.193,336.836a227.011,227.011,0,0,0,20.3,48.206l-24.5,30.9a25.369,25.369,0,0,0,1.9,33.6l42.2,42.2a25.244,25.244,0,0,0,33.6,1.9l30.7-24.3a223.019,223.019,0,0,0,50.1,21.2l4.6,39.5a25.3,25.3,0,0,0,25.1,22.4h59.693a25.3,25.3,0,0,0,25.1-22.4l4.4-38.1a225.535,225.535,0,0,0,53.694-21.7l29.7,23.5a25.357,25.357,0,0,0,33.6-1.9l42.2-42.2a25.259,25.259,0,0,0,1.9-33.6l-23.1-29.3a220.4,220.4,0,0,0,22.1-52.806l35.6-4.1a25.3,25.3,0,0,0,22.4-25.1V245.027a25.3,25.3,0,0,0-22.4-25.1l-35.1-4.1a221.8,221.8,0,0,0-21.2-52.205l21.6-27.3a25.369,25.369,0,0,0-1.9-33.6l-42.1-42.1a25.245,25.245,0,0,0-33.6-1.9l-26.5,21a222.487,222.487,0,0,0-54.894-23l-4-34.3A25.3,25.3,0,0,0,307.267,0H247.573a25.3,25.3,0,0,0-25.1,22.4l-4,34.3a221.606,221.606,0,0,0-56.294,23.8l-27.5-21.8a25.355,25.355,0,0,0-33.6,1.9l-42.2,42.2a25.259,25.259,0,0,0-1.9,33.6l23,29.1a217.594,217.594,0,0,0-20.8,52.706l-36.8,4.2A25.3,25.3,0,0,0,0,247.527v59.706a25.3,25.3,0,0,0,22.4,25.1ZM277.47,175.319a98.711,98.711,0,1,1-98.689,98.711A98.843,98.843,0,0,1,277.47,175.319ZM867.607,351.538l-31.5-26.6a24.91,24.91,0,0,0-33.2.9l-17.4,16.3a179.861,179.861,0,0,0-46.395-15l-4.9-24a25.145,25.145,0,0,0-26.6-20l-41.1,3.5a25.041,25.041,0,0,0-22.9,24.1l-0.8,24.4a180.34,180.34,0,0,0-44.3,23.3l-20.8-13.8a24.979,24.979,0,0,0-32.9,4.7l-26.6,31.7a24.925,24.925,0,0,0,.9,33.2l18.2,19.4a186.547,186.547,0,0,0-13.4,44.405l-26,5.3a25.15,25.15,0,0,0-20,26.6l3.5,41.1a25.04,25.04,0,0,0,24.1,22.9l28.1,0.9a183.519,183.519,0,0,0,19.9,38l-15.7,23.7a24.991,24.991,0,0,0,4.7,32.9l31.5,26.6a24.911,24.911,0,0,0,33.2-.9l20.6-19.3a180.537,180.537,0,0,0,42.3,13.8l5.7,28.2a25.145,25.145,0,0,0,26.6,20l41.1-3.5a25.041,25.041,0,0,0,22.9-24.1l0.9-27.6a184.784,184.784,0,0,0,42.3-21.4l22.7,15a24.978,24.978,0,0,0,32.9-4.7l26.6-31.5a24.922,24.922,0,0,0-.9-33.2l-18.3-19.4a180.3,180.3,0,0,0,14.4-44.605l25-5.1a25.149,25.149,0,0,0,20-26.6l-3.5-41.1a25.041,25.041,0,0,0-24.1-22.9l-25.1-.8a181.561,181.561,0,0,0-20.9-41.2l13.7-20.6A24.869,24.869,0,0,0,867.607,351.538ZM712.724,589.164a80.8,80.8,0,1,1,73.692-87.31A80.8,80.8,0,0,1,712.724,589.164ZM204.978,699.776a24.982,24.982,0,0,0-22.4,24.6l-0.3,25.3a24.923,24.923,0,0,0,21.8,25.1l18.6,2.4a144.344,144.344,0,0,0,13.2,32.3l-12,14.8a24.94,24.94,0,0,0,1.5,33.2l17.7,18.1a24.959,24.959,0,0,0,33.2,2.3l14.9-11.5a146.068,146.068,0,0,0,33.2,14.5l2,19.2a24.982,24.982,0,0,0,24.6,22.4l25.3,0.3a24.921,24.921,0,0,0,25.1-21.8l2.3-18.2a150.228,150.228,0,0,0,36-14l14,11.3a24.927,24.927,0,0,0,33.2-1.5l18.1-17.7a24.974,24.974,0,0,0,2.3-33.2l-10.7-13.9a145.084,145.084,0,0,0,15.2-35l16.6-1.7a24.982,24.982,0,0,0,22.4-24.6l0.3-25.3a24.922,24.922,0,0,0-21.8-25.1l-16.2-2.1a150.666,150.666,0,0,0-13.7-35l10.1-12.4a24.94,24.94,0,0,0-1.5-33.2l-17.7-18.1a24.959,24.959,0,0,0-33.2-2.3l-12.1,9.3a147.038,147.038,0,0,0-36.4-15.8l-1.6-15.7a24.981,24.981,0,0,0-24.6-22.4l-25.3-.3a24.921,24.921,0,0,0-25.1,21.8l-2,15.6a150.992,150.992,0,0,0-37.7,15.4l-12.5-10.2a24.928,24.928,0,0,0-33.2,1.5l-18.2,17.8a24.973,24.973,0,0,0-2.3,33.2l10.7,13.8a146.391,146.391,0,0,0-14.3,35Zm163.282-28.6a65.812,65.812,0,1,1-66.592,65.007A65.858,65.858,0,0,1,368.26,671.173Z"/>
</svg>
