<svg xmlns="http://www.w3.org/2000/svg" viewBox="0 0 512 340">
  <metadata><?xpacket begin="﻿" id="W5M0MpCehiHzreSzNTczkc9d"?>
<x:xmpmeta xmlns:x="adobe:ns:meta/" x:xmptk="Adobe XMP Core 5.6-c142 79.160924, 2017/07/13-01:06:39        ">
   <rdf:RDF xmlns:rdf="http://www.w3.org/1999/02/22-rdf-syntax-ns#">
      <rdf:Description rdf:about=""/>
   </rdf:RDF>
</x:xmpmeta>
                                                                                                    
                                                                                                    
                                                                                                    
                                                                                                    
                                                                                                    
                                                                                                    
                                                                                                    
                                                                                                    
                                                                                                    
                                                                                                    
                                                                                                    
                                                                                                    
                                                                                                    
                                                                                                    
                                                                                                    
                                                                                                    
                                                                                                    
                                                                                                    
                                                                                                    
                                                                                                    
                           
<?xpacket end="w"?></metadata>
<defs>
    <style>
      .cls-1 {
        fill: #fff;
        fill-opacity: 0.3;
        fill-rule: evenodd;
      }
    </style>
  </defs>
  <path class="cls-1" d="M375.07,0a74.223,74.223,0,0,0-31.8,7.123,110.136,110.136,0,0,1,0,135.209A74.717,74.717,0,1,0,375.07,0Zm0,185.184q-6.63,0-13.206.642a173.444,173.444,0,0,1,35.721,37.612,171.663,171.663,0,0,1,30.146,80.836,173.721,173.721,0,0,1,.92,17.863A53.356,53.356,0,0,1,425.579,340h68.56A17.862,17.862,0,0,0,512,322.137C512,246.621,450.573,185.184,375.07,185.184ZM151.632,110.845a110.129,110.129,0,0,1,17.1-103.721,74.718,74.718,0,1,0-31.8,142.334,74.221,74.221,0,0,0,31.8-7.125A110,110,0,0,1,151.632,110.845Zm-14.7,74.339C61.427,185.184,0,246.621,0,322.137A17.862,17.862,0,0,0,17.86,340H86.42a53.385,53.385,0,0,1-3.071-17.863,173.976,173.976,0,0,1,.919-17.863,171.661,171.661,0,0,1,30.146-80.836,173.444,173.444,0,0,1,35.721-37.612Q143.568,185.192,136.93,185.184ZM325.392,47.074a74.464,74.464,0,1,0,5.325,27.654A74.748,74.748,0,0,0,325.392,47.074Zm66.375,257.2a137.039,137.039,0,0,0-117.9-117.925V298.32a17.86,17.86,0,1,1-35.719,0V186.349a136.155,136.155,0,0,0-60.8,23.749,136.713,136.713,0,0,0-58.272,112.039A17.862,17.862,0,0,0,136.934,340H375.073a17.862,17.862,0,0,0,17.86-17.863A137.636,137.636,0,0,0,391.767,304.274Z"/>
</svg>
