<svg xmlns="http://www.w3.org/2000/svg" height="14" viewBox="0 0 15.344 14">
  <metadata><?xpacket begin="﻿" id="W5M0MpCehiHzreSzNTczkc9d"?>
<x:xmpmeta xmlns:x="adobe:ns:meta/" x:xmptk="Adobe XMP Core 5.6-c142 79.160924, 2017/07/13-01:06:39        ">
   <rdf:RDF xmlns:rdf="http://www.w3.org/1999/02/22-rdf-syntax-ns#">
      <rdf:Description rdf:about=""/>
   </rdf:RDF>
</x:xmpmeta>
                                                                                                    
                                                                                                    
                                                                                                    
                                                                                                    
                                                                                                    
                                                                                                    
                                                                                                    
                                                                                                    
                                                                                                    
                                                                                                    
                                                                                                    
                                                                                                    
                                                                                                    
                                                                                                    
                                                                                                    
                                                                                                    
                                                                                                    
                                                                                                    
                                                                                                    
                                                                                                    
                           
<?xpacket end="w"?></metadata>
<defs>
    <style>
      .cls-1 {
        fill: #fff;
        fill-opacity: 0.3;
        fill-rule: evenodd;
      }
    </style>
  </defs>
  <path id="Forma_1" data-name="Forma 1" class="cls-1" d="M3.65,4.264a0.829,0.829,0,0,0,.208.453c0.2,1.346,1.327,2.6,2.356,2.6,1.2,0,2.291-1.352,2.5-2.592a0.824,0.824,0,0,0,.211-0.456,1.242,1.242,0,0,0,0-.9C8.92,3.358,8.912,3.347,8.9,3.339A2.614,2.614,0,0,0,8.577.971,2.42,2.42,0,0,0,7.366.226L6.991,0.1A6.092,6.092,0,0,0,5.968-.139a0.257,0.257,0,0,0-.084.007,0.429,0.429,0,0,1-.152.018,1.039,1.039,0,0,0-.409.07A2.934,2.934,0,0,0,3.712,1.571,3.616,3.616,0,0,0,3.726,3.3a0.33,0.33,0,0,0-.077.073A1.221,1.221,0,0,0,3.65,4.264Zm4.788,8.484c-0.221-.124-0.461-0.243-0.717-0.356-0.125-.055-0.25-0.107-0.375-0.156-0.1-.036-0.214-0.084-0.3-0.105l-1.186-.32L8.084,7.292l0.951,0.6c0.2,0.127.349,0.233,0.511,0.352L9.58,8.269q0.242,0.179.474,0.367a11.552,11.552,0,0,1,.912.813L11.028,9.51c0.093-.1.184-0.194,0.275-0.294a3.951,3.951,0,0,0-.43-0.92,1.9,1.9,0,0,0-.822-0.555L9.926,7.7a9.22,9.22,0,0,0-1-.4c-0.1-.038-0.2-0.075-0.279-0.111a1.4,1.4,0,0,1-.7-0.552s0.2,1.955-1.507,2L6.2,8.632C4.648,8.494,4.545,6.638,4.545,6.638c-0.162.509-2.11,1.1-2.11,1.1a1.9,1.9,0,0,0-.824.556c-0.856,1.271-.957,4.1-0.957,4.1,0.011,0.646.29,0.713,0.29,0.713A17.347,17.347,0,0,0,6,14.138c0.167,0,.322,0,0.477-0.014l0,0.016a21.35,21.35,0,0,0,3.089-.423l-0.192-.253A3.326,3.326,0,0,0,8.438,12.748ZM7.876,6.725C7.9,6.7,7.92,6.671,7.942,6.641a0.1,0.1,0,0,1-.006-0.027C7.917,6.653,7.9,6.686,7.876,6.725Zm-3.322-.09,0-.021,0,0.022s0-.008.006-0.012A0.029,0.029,0,0,1,4.554,6.635Zm9.982,0.907a14.554,14.554,0,0,0-1.582,1.314c-0.5.475-.972,0.974-1.427,1.488-0.169.192-.333,0.387-0.5,0.581a0.046,0.046,0,0,1,0-.009,7.851,7.851,0,0,0-.77-0.872C9.986,9.779,9.706,9.533,9.418,9.3,9.273,9.183,9.127,9.069,8.977,8.957S8.686,8.744,8.5,8.624L7.315,11.029c0.107,0.028.265,0.09,0.4,0.141s0.278,0.112.416,0.173c0.276,0.122.545,0.255,0.8,0.4a4.194,4.194,0,0,1,1.25.983l0.91,1.191,0.522-1.134c0.263-.568.578-1.162,0.9-1.728s0.674-1.13,1.051-1.668A13.724,13.724,0,0,1,14.8,7.847a6.111,6.111,0,0,1,1.547-1.236A6.412,6.412,0,0,0,14.536,7.542Z" transform="translate(-0.656)"/>
</svg>
