<svg xmlns="http://www.w3.org/2000/svg" viewBox="0 0 26 24">
  <metadata><?xpacket begin="﻿" id="W5M0MpCehiHzreSzNTczkc9d"?>
<x:xmpmeta xmlns:x="adobe:ns:meta/" x:xmptk="Adobe XMP Core 5.6-c142 79.160924, 2017/07/13-01:06:39        ">
   <rdf:RDF xmlns:rdf="http://www.w3.org/1999/02/22-rdf-syntax-ns#">
      <rdf:Description rdf:about=""/>
   </rdf:RDF>
</x:xmpmeta>
                                                                                                    
                                                                                                    
                                                                                                    
                                                                                                    
                                                                                                    
                                                                                                    
                                                                                                    
                                                                                                    
                                                                                                    
                                                                                                    
                                                                                                    
                                                                                                    
                                                                                                    
                                                                                                    
                                                                                                    
                                                                                                    
                                                                                                    
                                                                                                    
                                                                                                    
                                                                                                    
                           
<?xpacket end="w"?></metadata>
<defs>
    <style>
      .cls-1 {
        fill: #fff;
        fill-opacity: 0.3;
        fill-rule: evenodd;
      }
    </style>
  </defs>
  <path id="Forma_1" data-name="Forma 1" class="cls-1" d="M24.378,12.822v9.622H5.423V12.822H24.378m1.613-1.57H3.809V24.014H25.991V11.252Zm-6.049,0,2.271,2.211a1.123,1.123,0,0,0-.05.243,1.291,1.291,0,0,0,1.309,1.273,1.34,1.34,0,0,0,.249-0.048l2.271,2.211v-5.89H19.941Zm1.512,5.107a1.275,1.275,0,1,1-1.309,1.274A1.292,1.292,0,0,1,21.454,16.359ZM14.9,14.281c2.186,0,3.958,1.5,3.958,3.352s-1.772,3.352-3.958,3.352-3.958-1.5-3.958-3.352S12.714,14.281,14.9,14.281ZM8.347,16.36a1.274,1.274,0,1,1-1.308,1.273A1.29,1.29,0,0,1,8.347,16.36Zm-4.537.782L6.08,14.931a1.21,1.21,0,0,0,.25.049,1.291,1.291,0,0,0,1.308-1.274,1.149,1.149,0,0,0-.05-0.243l2.271-2.212H3.809v5.89ZM7.639,21.56A1.291,1.291,0,0,0,6.33,20.287a1.339,1.339,0,0,0-.249.048L3.809,18.124v5.89H9.859L7.588,21.8A1.158,1.158,0,0,0,7.639,21.56ZM23.47,20.286a1.291,1.291,0,0,0-1.308,1.274,1.177,1.177,0,0,0,.05.243l-2.271,2.212h6.049v-5.89L23.72,20.335A1.217,1.217,0,0,0,23.47,20.286ZM18.633,6.423A1.274,1.274,0,1,1,17.324,7.7,1.291,1.291,0,0,1,18.633,6.423ZM2.3,11.252A1.493,1.493,0,0,1,3.809,9.779H4.636l0.037-.126L16.346,3.431l0.892,0.253a1.174,1.174,0,0,0,.079.237,1.326,1.326,0,0,0,1.777.505,1.15,1.15,0,0,0,.192-0.159L20.18,4.522l2.034,3.615-0.261.87a1.219,1.219,0,0,0-.242.074,1.272,1.272,0,0,0-.6.7h3.863L22.371,5.143h0L19.463-.022,14.156,2.807h0L5.314,7.521,0.007,10.351,2.3,14.421v-3.17Zm8.933-3.43A4.2,4.2,0,0,0,9.365,9.779h7.293a2.842,2.842,0,0,0-.3-0.869A3.787,3.787,0,0,0,11.23,7.822Z"/>
</svg>
